{
  "asset": {
    "version": "2.0",
    "generator": "splatforge-gltf"
  },
  "extensionsUsed": [
    "KHR_gaussian_splatting",
    "SF_spatial_streaming_index"
  ],
  "extensionsRequired": [
    "KHR_gaussian_splatting"
  ],
  "buffers": [
    {
      "byteLength": 5900000,
      "uri": "buffers/chunk_0000.bin"
    }
  ],
  "bufferViews": [
    {
      "buffer": 0,
      "byteOffset": 0,
      "byteLength": 300000
    },
    {
      "buffer": 0,
      "byteOffset": 300000,
      "byteLength": 400000
    },
    {
      "buffer": 0,
      "byteOffset": 700000,
      "byteLength": 300000
    },
    {
      "buffer": 0,
      "byteOffset": 1000000,
      "byteLength": 100000
    },
    {
      "buffer": 0,
      "byteOffset": 1100000,
      "byteLength": 300000
    },
    {
      "buffer": 0,
      "byteOffset": 1400000,
      "byteLength": 300000
    },
    {
      "buffer": 0,
      "byteOffset": 1700000,
      "byteLength": 300000
    },
    {
      "buffer": 0,
      "byteOffset": 2000000,
      "byteLength": 300000
    },
    {
      "buffer": 0,
      "byteOffset": 2300000,
      "byteLength": 300000
    },
    {
      "buffer": 0,
      "byteOffset": 2600000,
      "byteLength": 300000
    },
    {
      "buffer": 0,
      "byteOffset": 2900000,
      "byteLength": 300000
    },
    {
      "buffer": 0,
      "byteOffset": 3200000,
      "byteLength": 300000
    },
    {
      "buffer": 0,
      "byteOffset": 3500000,
      "byteLength": 300000
    },
    {
      "buffer": 0,
      "byteOffset": 3800000,
      "byteLength": 300000
    },
    {
      "buffer": 0,
      "byteOffset": 4100000,
      "byteLength": 300000
    },
    {
      "buffer": 0,
      "byteOffset": 4400000,
      "byteLength": 300000
    },
    {
      "buffer": 0,
      "byteOffset": 4700000,
      "byteLength": 300000
    },
    {
      "buffer": 0,
      "byteOffset": 5000000,
      "byteLength": 300000
    },
    {
      "buffer": 0,
      "byteOffset": 5300000,
      "byteLength": 300000
    },
    {
      "buffer": 0,
      "byteOffset": 5600000,
      "byteLength": 300000
    }
  ],
  "accessors": [
    {
      "bufferView": 0,
      "componentType": 5126,
      "count": 25000,
      "type": "VEC3",
      "min": [
        -0.7498892,
        -0.74997765,
        -0.74996305
      ],
      "max": [
        0.74994534,
        0.7499808,
        0.74997973
      ]
    },
    {
      "bufferView": 1,
      "componentType": 5126,
      "count": 25000,
      "type": "VEC4"
    },
    {
      "bufferView": 2,
      "componentType": 5126,
      "count": 25000,
      "type": "VEC3"
    },
    {
      "bufferView": 3,
      "componentType": 5126,
      "count": 25000,
      "type": "SCALAR"
    },
    {
      "bufferView": 4,
      "componentType": 5126,
      "count": 25000,
      "type": "VEC3"
    },
    {
      "bufferView": 5,
      "componentType": 5126,
      "count": 25000,
      "type": "VEC3"
    },
    {
      "bufferView": 6,
      "componentType": 5126,
      "count": 25000,
      "type": "VEC3"
    },
    {
      "bufferView": 7,
      "componentType": 5126,
      "count": 25000,
      "type": "VEC3"
    },
    {
      "bufferView": 8,
      "componentType": 5126,
      "count": 25000,
      "type": "VEC3"
    },
    {
      "bufferView": 9,
      "componentType": 5126,
      "count": 25000,
      "type": "VEC3"
    },
    {
      "bufferView": 10,
      "componentType": 5126,
      "count": 25000,
      "type": "VEC3"
    },
    {
      "bufferView": 11,
      "componentType": 5126,
      "count": 25000,
      "type": "VEC3"
    },
    {
      "bufferView": 12,
      "componentType": 5126,
      "count": 25000,
      "type": "VEC3"
    },
    {
      "bufferView": 13,
      "componentType": 5126,
      "count": 25000,
      "type": "VEC3"
    },
    {
      "bufferView": 14,
      "componentType": 5126,
      "count": 25000,
      "type": "VEC3"
    },
    {
      "bufferView": 15,
      "componentType": 5126,
      "count": 25000,
      "type": "VEC3"
    },
    {
      "bufferView": 16,
      "componentType": 5126,
      "count": 25000,
      "type": "VEC3"
    },
    {
      "bufferView": 17,
      "componentType": 5126,
      "count": 25000,
      "type": "VEC3"
    },
    {
      "bufferView": 18,
      "componentType": 5126,
      "count": 25000,
      "type": "VEC3"
    },
    {
      "bufferView": 19,
      "componentType": 5126,
      "count": 25000,
      "type": "VEC3"
    }
  ],
  "meshes": [
    {
      "primitives": [
        {
          "attributes": {
            "KHR_gaussian_splatting:OPACITY": 3,
            "KHR_gaussian_splatting:ROTATION": 1,
            "KHR_gaussian_splatting:SCALE": 2,
            "KHR_gaussian_splatting:SH_DEGREE_0_COEF_0": 4,
            "KHR_gaussian_splatting:SH_DEGREE_1_COEF_0": 5,
            "KHR_gaussian_splatting:SH_DEGREE_1_COEF_1": 6,
            "KHR_gaussian_splatting:SH_DEGREE_1_COEF_2": 7,
            "KHR_gaussian_splatting:SH_DEGREE_2_COEF_0": 8,
            "KHR_gaussian_splatting:SH_DEGREE_2_COEF_1": 9,
            "KHR_gaussian_splatting:SH_DEGREE_2_COEF_2": 10,
            "KHR_gaussian_splatting:SH_DEGREE_2_COEF_3": 11,
            "KHR_gaussian_splatting:SH_DEGREE_2_COEF_4": 12,
            "KHR_gaussian_splatting:SH_DEGREE_3_COEF_0": 13,
            "KHR_gaussian_splatting:SH_DEGREE_3_COEF_1": 14,
            "KHR_gaussian_splatting:SH_DEGREE_3_COEF_2": 15,
            "KHR_gaussian_splatting:SH_DEGREE_3_COEF_3": 16,
            "KHR_gaussian_splatting:SH_DEGREE_3_COEF_4": 17,
            "KHR_gaussian_splatting:SH_DEGREE_3_COEF_5": 18,
            "KHR_gaussian_splatting:SH_DEGREE_3_COEF_6": 19,
            "POSITION": 0
          },
          "extensions": {
            "KHR_gaussian_splatting": {
              "colorSpace": "srgb_rec709_display",
              "kernel": "ellipse",
              "projection": "perspective",
              "shDegree": 3,
              "sortingMethod": "cameraDistance"
            }
          },
          "mode": 0
        }
      ]
    }
  ],
  "extensions": {
    "KHR_gaussian_splatting": {
      "bbox": {
        "max": [
          0.749945342540741,
          0.7499808073043823,
          0.7499797344207764
        ],
        "min": [
          -0.7498891949653625,
          -0.7499776482582092,
          -0.7499630451202393
        ]
      },
      "shDegree": 3,
      "splatCount": 25000
    },
    "SF_spatial_streaming_index": {
      "chunkCount": 1,
      "chunks": [
        {
          "bbox": {
            "max": [
              0.749945342540741,
              0.7499808073043823,
              0.7499797344207764
            ],
            "min": [
              -0.7498891949653625,
              -0.7499776482582092,
              -0.7499630451202393
            ]
          },
          "buffer": 0,
          "byteLength": 5900000,
          "byteOffset": 0,
          "checksum": "blake3:06892247556886d66c9b31686240bfc68a6f68e55dcc1f43a6b4533539ce1052",
          "loadPriority": 0,
          "lod": 0,
          "splatCount": 25000,
          "uri": "buffers/chunk_0000.bin"
        }
      ],
      "lods": [
        {
          "level": 0,
          "splatFraction": 1.0
        }
      ],
      "ordering": "morton"
    }
  }
}