{
  "asset": {
    "version": "2.0",
    "generator": "catetus-gltf"
  },
  "extensionsUsed": [
    "KHR_gaussian_splatting",
    "KHR_mesh_quantization"
  ],
  "extensionsRequired": [
    "KHR_gaussian_splatting"
  ],
  "buffers": [
    {
      "byteLength": 2900000,
      "uri": "buffers/chunk_0000.bin"
    }
  ],
  "bufferViews": [
    {
      "buffer": 0,
      "byteOffset": 0,
      "byteLength": 600000
    },
    {
      "buffer": 0,
      "byteOffset": 600000,
      "byteLength": 1600000
    },
    {
      "buffer": 0,
      "byteOffset": 2200000,
      "byteLength": 300000
    },
    {
      "buffer": 0,
      "byteOffset": 2500000,
      "byteLength": 100000
    },
    {
      "buffer": 0,
      "byteOffset": 2600000,
      "byteLength": 300000
    }
  ],
  "accessors": [
    {
      "bufferView": 0,
      "componentType": 5123,
      "count": 100000,
      "type": "VEC3",
      "normalized": true,
      "min": [
        -3.0499988,
        -2.049991,
        -1.5499939
      ],
      "max": [
        3.0499892,
        2.049999,
        1.5499996
      ]
    },
    {
      "bufferView": 1,
      "componentType": 5126,
      "count": 100000,
      "type": "VEC4"
    },
    {
      "bufferView": 2,
      "componentType": 5121,
      "count": 100000,
      "type": "VEC3",
      "normalized": true,
      "min": [
        0.008000076,
        0.008000076,
        0.008000076
      ],
      "max": [
        0.027999952,
        0.027999952,
        0.027999952
      ]
    },
    {
      "bufferView": 3,
      "componentType": 5121,
      "count": 100000,
      "type": "SCALAR",
      "normalized": true,
      "min": [
        0.0
      ],
      "max": [
        1.0
      ]
    },
    {
      "bufferView": 4,
      "componentType": 5121,
      "count": 100000,
      "type": "VEC3",
      "normalized": true,
      "min": [
        0.0,
        0.0,
        0.0
      ],
      "max": [
        1.0,
        1.0,
        1.0
      ]
    }
  ],
  "meshes": [
    {
      "primitives": [
        {
          "extensions": {
            "KHR_gaussian_splatting": {
              "attributes": {
                "POSITION": 0,
                "_COLOR_DC": 4,
                "_OPACITY": 3,
                "_ROTATION": 1,
                "_SCALE": 2
              },
              "shDegree": 0
            }
          }
        }
      ]
    }
  ],
  "extensions": {
    "KHR_gaussian_splatting": {
      "bbox": {
        "max": [
          3.0499892234802246,
          2.0499989986419678,
          1.5499995946884155
        ],
        "min": [
          -3.0499987602233887,
          -2.0499908924102783,
          -1.549993872642517
        ]
      },
      "shDegree": 0,
      "splatCount": 100000
    }
  }
}