{
  "asset": {
    "version": "2.0",
    "generator": "splatforge-gltf"
  },
  "extensionsUsed": [
    "KHR_gaussian_splatting"
  ],
  "extensionsRequired": [
    "KHR_gaussian_splatting"
  ],
  "buffers": [
    {
      "byteLength": 224,
      "uri": "buffers/chunk_0000.bin"
    }
  ],
  "bufferViews": [
    {
      "buffer": 0,
      "byteOffset": 0,
      "byteLength": 48
    },
    {
      "buffer": 0,
      "byteOffset": 48,
      "byteLength": 64
    },
    {
      "buffer": 0,
      "byteOffset": 112,
      "byteLength": 48
    },
    {
      "buffer": 0,
      "byteOffset": 160,
      "byteLength": 16
    },
    {
      "buffer": 0,
      "byteOffset": 176,
      "byteLength": 48
    }
  ],
  "accessors": [
    {
      "bufferView": 0,
      "componentType": 5126,
      "count": 4,
      "type": "VEC3",
      "min": [
        0.0,
        0.0,
        -3.0
      ],
      "max": [
        3.0,
        1.5,
        -0.0
      ]
    },
    {
      "bufferView": 1,
      "componentType": 5126,
      "count": 4,
      "type": "VEC4"
    },
    {
      "bufferView": 2,
      "componentType": 5126,
      "count": 4,
      "type": "VEC3"
    },
    {
      "bufferView": 3,
      "componentType": 5126,
      "count": 4,
      "type": "SCALAR"
    },
    {
      "bufferView": 4,
      "componentType": 5126,
      "count": 4,
      "type": "VEC3"
    }
  ],
  "meshes": [
    {
      "primitives": [
        {
          "extensions": {
            "KHR_gaussian_splatting": {
              "attributes": {
                "POSITION": 0,
                "_COLOR_DC": 4,
                "_OPACITY": 3,
                "_ROTATION": 1,
                "_SCALE": 2
              },
              "shDegree": 0
            }
          }
        }
      ]
    }
  ],
  "extensions": {
    "KHR_gaussian_splatting": {
      "bbox": {
        "max": [
          3.0,
          1.5,
          -0.0
        ],
        "min": [
          0.0,
          0.0,
          -3.0
        ]
      },
      "shDegree": 0,
      "splatCount": 4
    }
  }
}