{
  "accessors": [
    {
      "bufferView": 0,
      "componentType": 5126,
      "count": 4,
      "max": [
        3.0,
        1.5,
        0.0
      ],
      "min": [
        0.0,
        0.0,
        -3.0
      ],
      "type": "VEC3"
    },
    {
      "bufferView": 1,
      "componentType": 5126,
      "count": 4,
      "type": "VEC4"
    },
    {
      "bufferView": 2,
      "componentType": 5126,
      "count": 4,
      "type": "VEC3"
    },
    {
      "bufferView": 3,
      "componentType": 5126,
      "count": 4,
      "type": "SCALAR"
    },
    {
      "bufferView": 4,
      "componentType": 5126,
      "count": 4,
      "type": "VEC3"
    }
  ],
  "asset": {
    "generator": "splatforge-khr-fixtures",
    "version": "2.0"
  },
  "bufferViews": [
    {
      "buffer": 0,
      "byteLength": 48,
      "byteOffset": 0
    },
    {
      "buffer": 0,
      "byteLength": 64,
      "byteOffset": 48
    },
    {
      "buffer": 0,
      "byteLength": 48,
      "byteOffset": 112
    },
    {
      "buffer": 0,
      "byteLength": 16,
      "byteOffset": 160
    },
    {
      "buffer": 0,
      "byteLength": 48,
      "byteOffset": 176
    }
  ],
  "buffers": [
    {
      "byteLength": 224,
      "uri": "buffers/chunk_0000.bin"
    }
  ],
  "extensionsUsed": [
    "KHR_gaussian_splatting"
  ],
  "meshes": [
    {
      "primitives": [
        {
          "attributes": {
            "KHR_gaussian_splatting:OPACITY": 3,
            "KHR_gaussian_splatting:SCALE": 2,
            "KHR_gaussian_splatting:SH_DEGREE_0_COEF_0": 4,
            "POSITION": 0
          },
          "extensions": {
            "KHR_gaussian_splatting": {
              "colorSpace": "srgb_rec709_display",
              "kernel": "ellipse",
              "projection": "perspective",
              "sortingMethod": "cameraDistance"
            }
          },
          "mode": 0
        }
      ]
    }
  ],
  "nodes": [
    {
      "mesh": 0
    }
  ],
  "scene": 0,
  "scenes": [
    {
      "nodes": [
        0
      ]
    }
  ]
}